<svg xmlns="http://www.w3.org/2000/svg" width="256" height="256" viewBox="0 0 100 100"><rect width="100" height="100" rx="20" fill="#0e1420"></rect><path fill="#ffec9e" d="M72.05 56.03L72.05 56.03Q71.07 56.96 69.95 57.91Q68.82 58.86 67.55 59.84L67.55 59.84Q68.77 62.82 69.97 65.53Q71.17 68.24 72.22 70.51Q73.27 72.78 74.19 74.49Q75.12 76.20 75.85 77.22L75.85 77.22Q76.88 78.64 78.15 79.71L78.15 79.71Q79.27 80.64 80.76 81.40Q82.25 82.15 84.06 82.15L84.06 82.15Q85.86 82.15 87.96 80.93L87.96 80.93Q86.21 82.79 84.23 84.57Q82.25 86.35 80.08 87.77Q77.91 89.18 75.59 90.06Q73.27 90.94 70.83 90.94L70.83 90.94Q68.97 90.94 67.41 89.84Q65.84 88.75 64.33 85.96L64.33 85.96Q63.79 85.08 62.92 83.15Q62.04 81.23 60.89 78.56Q59.74 75.90 58.37 72.66Q57.01 69.41 55.54 65.84L55.54 65.84Q52.47 66.77 48.88 67.31Q45.29 67.85 41.14 67.85L41.14 67.85L26.73 67.85L22.73 77.22Q22.39 78.15 22.27 79.10Q22.14 80.05 22.44 80.83Q22.73 81.62 23.58 82.13Q24.44 82.64 26.15 82.64L26.15 82.64Q27.12 82.64 28.34 82.45Q29.57 82.25 31.13 81.86L31.13 81.86Q28.39 84.45 26.39 86.25Q24.39 88.06 22.58 89.18Q20.78 90.31 18.92 90.82Q17.07 91.33 14.67 91.33L14.67 91.33Q13.26 91.33 12.65 90.65Q12.04 89.97 12.04 88.75L12.04 88.75Q12.04 87.18 12.84 84.94Q13.65 82.69 14.87 79.96L14.87 79.96Q15.89 77.47 18.87 70.73L18.87 70.73Q20.14 67.85 21.95 63.75Q23.75 59.64 26.25 54.05Q28.74 48.46 31.93 41.19Q35.13 33.91 39.23 24.73L39.23 24.73L41.53 22.83Q41.53 21.31 41.77 20.19Q42.02 19.07 42.48 18.21Q42.94 17.36 43.58 16.67Q44.21 15.99 44.95 15.36L44.95 15.36Q45.83 14.62 47.05 13.65L47.05 13.65Q49.10 11.99 53.05 8.67L53.05 8.67Q52.47 9.79 52.25 11.18Q52.03 12.57 52.03 13.94L52.03 13.94Q52.03 15.36 52.17 16.65Q52.32 17.94 52.51 18.92L52.51 18.92Q52.71 20.09 53.05 21.07L53.05 21.07Q53.59 22.83 54.91 26.64Q56.23 30.44 58.06 35.40Q59.89 40.36 62.04 45.97Q64.18 51.59 66.33 56.96L66.33 56.96Q67.75 56.76 68.82 56.57Q69.90 56.37 70.63 56.27L70.63 56.27Q71.46 56.13 72.05 56.03ZM42.94 32.15L42.94 32.15Q39.48 39.72 36.40 46.34Q33.33 52.95 30.54 59.45L30.54 59.45Q37.08 59.30 42.55 59.01Q48.02 58.72 52.47 58.33L52.47 58.33Q50.90 54.52 49.46 50.73Q48.02 46.95 46.78 43.53Q45.53 40.11 44.53 37.18Q43.53 34.25 42.94 32.15Z"></path></svg>